<svg height="512pt" viewBox="0 0 512 512" width="512pt" xmlns="http://www.w3.org/2000/svg"><path d="m512 256c0 141.386719-114.613281 256-256 256s-256-114.613281-256-256 114.613281-256 256-256 256 114.613281 256 256zm0 0" fill="#fc6930"/><path d="m400 270h-280c-5.523438 0-10-4.476562-10-10v-180c0-5.523438 4.476562-10 10-10h280c5.523438 0 10 4.476562 10 10v180c0 5.523438-4.476562 10-10 10zm0 0" fill="#c7eefd"/><path d="m440 120v230c0 11.046875-8.953125 20-20 20h-320c-11.046875 0-20-8.953125-20-20v-290c0-5.523438 4.476562-10 10-10h121.460938c11.359374 0 21.75 6.421875 26.832031 16.582031l16.707031 33.417969h165c11.046875 0 20 8.953125 20 20zm0 0" fill="#fdbf43"/><path d="m130 370h-30c-11.046875 0-20-8.953125-20-20v-290c0-5.523438 4.476562-10 10-10h30c-5.523438 0-10 4.476562-10 10v290c0 11.046875 8.953125 20 20 20zm0 0" fill="#fcb30b"/><path d="m420 430h-310v-140h310zm0 0" fill="#98e5fb"/><path d="m490 360c0 38.660156-31.339844 70-70 70s-70-31.339844-70-70 31.339844-70 70-70 70 31.339844 70 70zm0 0" fill="#c7eefd"/><path d="m420 310c-27.613281 0-50 22.386719-50 50s22.386719 50 50 50 50-22.386719 50-50-22.386719-50-50-50zm0 80c-16.570312 0-30-13.429688-30-30s13.429688-30 30-30 30 13.429688 30 30-13.429688 30-30 30zm10-30c0 5.523438-4.476562 10-10 10s-10-4.476562-10-10 4.476562-10 10-10 10 4.476562 10 10zm0 0" fill="#98e5fb"/><path d="m390.542969 368.761719c3.472656 27.796875 23.25 50.519531 49.457031 58.324219-6.339844 1.886718-13.046875 2.914062-20 2.914062h-330v-70h290.628906c5.042969 0 9.289063 3.757812 9.914063 8.761719zm0 0" fill="#62dafa"/><path d="m290 360.21875v13.5625c0 6.566406-4.308594 12.355469-10.597656 14.246094l-21.625 6.484375c-6.542969 1.964843-11.863282 6.761719-14.472656 13.078125-.027344.066406-.054688.128906-.078126.195312-2.628906 6.316406-2.269531 13.480469.972657 19.507813l10.703125 19.875c3.117187 5.785156 2.066406 12.925781-2.578125 17.566406l-9.589844 9.589844c-4.640625 4.644531-11.78125 5.695312-17.566406 2.578125l-19.875-10.703125c-6.027344-3.242188-13.191407-3.601563-19.507813-.972657-.066406.027344-.128906.050782-.195312.078126-6.316406 2.609374-11.113282 7.929687-13.078125 14.472656l-6.484375 21.625c-1.886719 6.289062-7.679688 10.597656-14.246094 10.597656h-13.5625c-6.566406 0-12.355469-4.308594-14.246094-10.597656l-6.484375-21.625c-1.964843-6.542969-6.761719-11.863282-13.078125-14.472656-.066406-.027344-.128906-.054688-.195312-.078126-6.316406-2.628906-13.480469-2.269531-19.507813.972657l-19.875 10.703125c-5.785156 3.117187-12.925781 2.066406-17.566406-2.578125l-9.589844-9.589844c-4.644531-4.640625-5.695312-11.78125-2.578125-17.566406l10.703125-19.875c3.242188-6.027344 3.601563-13.191407.972657-19.507813-.027344-.066406-.050782-.128906-.078126-.195312-2.609374-6.316406-7.929687-11.113282-14.472656-13.078125l-21.625-6.484375c-6.289062-1.890625-10.597656-7.679688-10.597656-14.246094v-13.5625c0-6.566406 4.308594-12.355469 10.597656-14.246094l21.625-6.484375c6.542969-1.964843 11.863282-6.761719 14.472656-13.078125.027344-.066406.054688-.128906.078126-.195312 2.628906-6.316406 2.269531-13.480469-.972657-19.507813l-10.703125-19.875c-3.117187-5.785156-2.066406-12.925781 2.578125-17.566406l9.589844-9.589844c4.640625-4.644531 11.78125-5.695312 17.566406-2.578125l19.875 10.703125c6.027344 3.242188 13.191407 3.601563 19.507813.972657.066406-.027344.128906-.050782.195312-.078126 6.316406-2.609374 11.113282-7.929687 13.078125-14.472656l6.484375-21.625c1.886719-6.289062 7.679688-10.597656 14.246094-10.597656h13.5625c6.566406 0 12.355469 4.308594 14.246094 10.597656l6.484375 21.625c1.964843 6.542969 6.761719 11.863282 13.078125 14.472656.066406.027344.128906.054688.195312.078126 6.316406 2.628906 13.480469 2.269531 19.507813-.972657l19.875-10.703125c5.785156-3.117187 12.925781-2.066406 17.566406 2.578125l9.589844 9.589844c4.644531 4.640625 5.695312 11.78125 2.578125 17.566406l-10.703125 19.875c-3.242188 6.027344-3.601563 13.191407-.972657 19.507813.027344.066406.050782.128906.078126.195312 2.609374 6.316406 7.929687 11.113282 14.472656 13.078125l21.625 6.484375c6.289062 1.886719 10.597656 7.679688 10.597656 14.246094zm0 0" fill="#314dc8"/><path d="m229.027344 367c0 46.40625-37.621094 84.027344-84.027344 84.027344s-84.027344-37.621094-84.027344-84.027344 37.621094-84.027344 84.027344-84.027344 84.027344 37.621094 84.027344 84.027344zm0 0" fill="#172a7d"/><path d="m229.027344 367c0 41.332031-29.84375 75.691406-69.15625 82.714844-39.3125-7.023438-69.152344-41.382813-69.152344-82.714844s29.839844-75.691406 69.152344-82.714844c39.3125 7.023438 69.15625 41.382813 69.15625 82.714844zm0 0" fill="#1f3595"/><path d="m184.410156 367c0 21.765625-17.644531 39.410156-39.410156 39.410156s-39.410156-17.644531-39.410156-39.410156 17.644531-39.410156 39.410156-39.410156 39.410156 17.644531 39.410156 39.410156zm0 0" fill="#62dafa"/><path d="m106.222656 360c3.304688-18.425781 19.402344-32.410156 38.777344-32.410156s35.472656 13.984375 38.777344 32.410156zm0 0" fill="#98e5fb"/></svg>