<?xml version="1.0" encoding="iso-8859-1"?>
<!-- Generator: Adobe Illustrator 19.0.0, SVG Export Plug-In . SVG Version: 6.00 Build 0)  -->
<svg version="1.1" id="Capa_1" xmlns="http://www.w3.org/2000/svg" xmlns:xlink="http://www.w3.org/1999/xlink" x="0px" y="0px"
	 viewBox="0 0 461.322 461.322" style="enable-background:new 0 0 461.322 461.322;" xml:space="preserve">
<path style="fill:#00BBD3;" d="M171.102,389.224h118.073c-1.045,31.347-26.645,56.424-58.514,56.424h-1.045
	C197.747,445.649,172.147,420.571,171.102,389.224z"/>
<g>
	<path style="fill:#D4E1F4;" d="M276.114,61.127v20.898c-14.106-4.702-29.78-7.314-45.453-7.314s-31.347,2.612-45.453,7.314V61.127
		c0-12.539,5.224-24.033,13.061-31.869c7.837-7.837,19.853-13.584,32.392-13.584C255.739,15.673,276.114,36.049,276.114,61.127z"/>
	<path style="fill:#D4E1F4;" d="M289.176,389.224H171.102H85.42c-22.465,0-40.751-18.286-40.751-40.751
		c0-11.494,4.702-21.42,12.016-28.735s17.763-12.016,28.735-12.016h0.522H375.38h0.522c22.465,0,40.751,18.286,40.751,40.751
		c0,11.494-4.702,21.42-12.016,28.735c-7.314,7.314-17.241,12.016-28.735,12.016H289.176z"/>
</g>
<path style="fill:#4DCFE0;" d="M276.114,82.024c57.469,19.331,99.265,74.188,99.265,138.971v85.682v1.045H85.943v-1.045v-85.682
	c0-40.229,16.196-76.8,42.318-103.445c15.673-16.196,35.004-28.212,56.947-35.527c14.106-4.702,29.78-7.314,45.453-7.314
	S262.008,77.322,276.114,82.024z"/>
<path style="fill:#3A2C51;" d="M391.053,294.139v-73.143c0-65.829-39.184-124.865-99.265-149.943v-9.927
	C291.788,27.167,264.62,0,230.661,0c-16.196,0-31.869,6.269-43.363,18.286c-10.971,10.971-17.763,26.645-17.763,42.841v9.927
	c-19.853,8.359-38.139,20.376-52.245,35.527c-30.302,30.824-47.02,71.576-47.02,114.416v73.143
	c-9.404,2.612-17.763,7.314-24.555,14.629c-10.971,10.449-16.718,25.078-16.718,39.706c0,31.347,25.078,56.425,56.424,56.425h72.098
	c7.837,32.392,37.094,56.424,72.098,56.424h1.045c35.004,0,64.261-24.033,72.098-56.424h73.143c15.151,0,29.257-5.747,39.706-16.718
	c10.449-10.449,16.718-25.078,16.718-39.706C432.327,322.873,414.563,300.931,391.053,294.139z M209.241,40.229
	c5.747-5.747,13.584-8.882,21.42-8.882c16.196,0,29.78,13.584,29.78,29.78v1.045c-9.927-2.09-19.853-3.135-29.78-3.135
	s-19.853,1.045-29.78,3.135v-1.045C200.882,53.29,204.016,45.976,209.241,40.229z M139.755,128.522
	c13.584-14.106,30.824-25.078,50.678-31.347c25.6-8.359,55.38-8.359,80.98,0c52.767,17.763,88.816,67.918,88.816,124.343v71.053
	H101.616v-71.576C101.616,185.992,115.2,153.6,139.755,128.522z M230.661,429.975h-1.045c-17.763,0-32.392-10.449-39.184-25.078
	h79.412C263.053,419.527,247.902,429.975,230.661,429.975z M393.665,366.237c-3.135,3.135-9.404,7.314-17.763,7.314H85.42
	c-13.584,0-25.078-11.494-25.078-25.078c0-8.359,4.18-14.106,7.314-17.763c4.702-4.702,11.494-7.314,18.286-7.314h289.959
	c13.584,0,25.078,11.494,25.078,25.078C400.98,356.833,396.8,362.58,393.665,366.237z"/>
<g>
</g>
<g>
</g>
<g>
</g>
<g>
</g>
<g>
</g>
<g>
</g>
<g>
</g>
<g>
</g>
<g>
</g>
<g>
</g>
<g>
</g>
<g>
</g>
<g>
</g>
<g>
</g>
<g>
</g>
</svg>
