<svg viewBox="0 0 512 512" xmlns="http://www.w3.org/2000/svg"><path d="m512 69.785156h-421l165 360h256zm0 0" fill="#0f9af0"/><path d="m0 69.785156v442.214844l82.214844-82.214844h173.785156v-360zm0 0" fill="#13bdf7"/><path d="m301 0c-24.75 0-45 20.25-45 45l-60 294.785156 256-75v-264.785156zm0 0" fill="#fbf24a"/><path d="m211 0h-151v264.785156l196 75v-294.785156c0-24.75-20.25-45-45-45zm0 0" fill="#fdf9a5"/><path d="m301 264.785156c-24.75 0-45 20.25-45 45h-30l30 60 196-45v-60zm0 0" fill="#fbd141"/><path d="m211 264.785156h-151v60l196 45v-60c0-24.75-20.25-45-45-45zm0 0" fill="#fbf24a"/><path d="m211 324.785156h-151v45h196c0-24.75-20.25-45-45-45zm0 0" fill="#085aae"/><path d="m256 369.785156h196v-45h-151c-24.75 0-45 20.25-45 45zm0 0" fill="#163f69"/></svg>