<?xml version="1.0" encoding="iso-8859-1"?>
<!-- Generator: Adobe Illustrator 19.0.0, SVG Export Plug-In . SVG Version: 6.00 Build 0)  -->
<svg version="1.1" id="Capa_1" xmlns="http://www.w3.org/2000/svg" xmlns:xlink="http://www.w3.org/1999/xlink" x="0px" y="0px"
	 viewBox="0 0 512 512" style="enable-background:new 0 0 512 512;" xml:space="preserve">
<polygon style="fill:#E70020;" points="265.032,211.919 279.063,217.229 329.007,247.582 362.899,268.174 361.91,270.794 
	389.973,281.415 496.511,0 345.259,0 "/>
<polygon style="fill:#FF623F;" points="265.032,211.919 279.063,217.229 329.007,247.582 337.517,225.02 422.476,0 345.259,0 "/>
<polygon style="fill:#E1E1E4;" points="323.526,219.729 337.517,225.02 351.589,230.34 438.647,0 406.584,0 "/>
<polygon style="fill:#FFFFFF;" points="323.526,219.729 337.517,225.02 422.476,0 406.584,0 "/>
<polygon style="fill:#FF623F;" points="246.969,211.919 232.938,217.229 182.994,247.582 149.101,268.174 150.091,270.794 
	122.029,281.415 15.489,0 166.742,0 "/>
<polygon style="fill:#E70020;" points="246.969,211.919 232.938,217.229 182.994,247.582 174.483,225.02 89.526,0 166.742,0 "/>
<polygon style="fill:#FFFFFF;" points="188.475,219.729 174.483,225.02 160.412,230.34 73.354,0 105.417,0 "/>
<polygon style="fill:#E1E1E4;" points="188.475,219.729 174.483,225.02 89.526,0 105.417,0 "/>
<path style="fill:#8A8891;" d="M418.181,349.819C418.181,439.246,345.428,512,256,512S93.82,439.247,93.82,349.819
	s72.753-162.181,162.181-162.181S418.181,260.392,418.181,349.819z"/>
<path style="fill:#7A7780;" d="M418.181,349.819C418.181,439.246,345.428,512,256,512V187.639
	C345.428,187.639,418.181,260.392,418.181,349.819z"/>
<circle style="fill:#C7C5CA;" cx="256.003" cy="349.821" r="107.729"/>
<path style="fill:#ADACB2;" d="M363.727,349.819c0,59.496-48.23,107.727-107.727,107.727V242.092
	C315.497,242.092,363.727,290.323,363.727,349.819z"/>
<g>
</g>
<g>
</g>
<g>
</g>
<g>
</g>
<g>
</g>
<g>
</g>
<g>
</g>
<g>
</g>
<g>
</g>
<g>
</g>
<g>
</g>
<g>
</g>
<g>
</g>
<g>
</g>
<g>
</g>
</svg>
