<?xml version="1.0" encoding="iso-8859-1"?>
<!-- Generator: Adobe Illustrator 19.0.0, SVG Export Plug-In . SVG Version: 6.00 Build 0)  -->
<svg version="1.1" id="Capa_1" xmlns="http://www.w3.org/2000/svg" xmlns:xlink="http://www.w3.org/1999/xlink" x="0px" y="0px"
	 viewBox="0 0 512 512" style="enable-background:new 0 0 512 512;" xml:space="preserve">
<g>
	<g>
		<path style="fill:#41767F;" d="M318.182,388.149l-25.07-28.248c-2.513-2.833-2.939-6.953-1.059-10.24l5.65-9.799l5.65-9.799
			c1.946-3.256,5.72-4.949,9.446-4.237l36.988,7.592l15.713-9.004l11.917-35.928c1.246-3.572,4.603-5.975,8.386-6.003H408.4
			c3.783,0.028,7.14,2.431,8.386,6.003l11.917,35.928l15.713,9.004l36.988-7.592c3.726-0.712,7.499,0.981,9.445,4.237l5.65,9.799
			l5.65,9.799c1.88,3.287,1.454,7.407-1.059,10.24l-25.07,28.248v18.185l25.07,28.248c2.513,2.833,2.939,6.953,1.059,10.24
			l-5.65,9.799l-5.65,9.799c-1.946,3.256-5.72,4.949-9.445,4.237l-36.988-7.592l-15.713,9.004l-11.917,35.928
			c-1.246,3.572-4.603,5.975-8.386,6.003h-22.599c-3.783-0.028-7.14-2.431-8.386-6.003l-11.917-35.928l-15.713-9.004l-36.988,7.592
			c-3.726,0.712-7.499-0.981-9.446-4.237l-5.65-9.799l-5.65-9.799c-1.88-3.287-1.454-7.407,1.059-10.24l25.07-28.248V388.149z"/>
		<path style="fill:#41767F;" d="M151.252,297.754l6.091,30.632c0.839,4.111,4.456,7.063,8.651,7.062h20.833
			c4.195,0.001,7.812-2.951,8.651-7.062l6.091-30.632l48.905-20.303l26.041,17.302c3.475,2.387,8.161,1.941,11.123-1.059
			l7.415-7.327l7.327-7.415c3-2.962,3.447-7.648,1.059-11.123l-17.302-26.041l20.303-48.905l30.632-6.091
			c4.111-0.839,7.063-4.456,7.062-8.651v-20.833c0.001-4.195-2.951-7.812-7.062-8.651l-30.632-6.091l-20.303-48.905l17.302-26.041
			c2.387-3.475,1.941-8.161-1.059-11.123l-7.327-7.415l-7.415-7.327c-2.962-3-7.648-3.446-11.123-1.059l-26.041,17.302
			l-48.905-20.303l-6.091-30.632c-0.839-4.111-4.456-7.063-8.651-7.062h-20.833c-4.195-0.001-7.812,2.951-8.651,7.062l-6.091,30.632
			l-48.905,20.303L76.306,40.695c-3.475-2.387-8.161-1.941-11.123,1.059l-7.415,7.327l-7.327,7.415
			c-3,2.962-3.446,7.648-1.059,11.123l17.302,26.041L46.38,142.566l-30.632,6.091c-4.111,0.839-7.063,4.456-7.062,8.651v20.833
			c-0.001,4.195,2.951,7.812,7.062,8.651l30.632,6.091l20.303,48.905l-17.302,26.041c-2.387,3.475-1.941,8.161,1.059,11.123
			l7.327,7.415l7.415,7.327c2.962,3,7.648,3.447,11.123,1.059l26.041-17.302L151.252,297.754z"/>
	</g>
	<circle style="fill:#67B9CC;" cx="176.411" cy="167.724" r="132.414"/>
	<path style="fill:#9FC9D3;" d="M251.278,92.857c-26.72-26.882-65.772-37.431-102.393-27.657s-65.225,38.377-74.998,74.998
		s0.775,75.673,27.657,102.393c3.464,3.345,8.97,3.298,12.375-0.108s3.453-8.911,0.108-12.375
		c-25.268-25.239-32.839-63.216-19.181-96.215s45.852-54.518,81.566-54.518s67.909,21.519,81.566,54.518s6.086,70.976-19.181,96.215
		c-2.295,2.216-3.215,5.499-2.407,8.585c0.808,3.086,3.218,5.497,6.305,6.305c3.086,0.808,6.368-0.112,8.585-2.407
		c19.888-19.839,31.066-46.776,31.066-74.867S271.166,112.696,251.278,92.857z"/>
	<circle style="fill:#41767F;" cx="176.411" cy="167.724" r="26.483"/>
	<circle style="fill:#67B9CC;" cx="397.1" cy="397.241" r="79.448"/>
	<path style="fill:#9FC9D3;" d="M397.1,450.207c-21.414-0.012-40.713-12.916-48.906-32.7s-3.667-42.555,11.469-57.703
		c2.231-2.23,5.483-3.1,8.529-2.282c3.047,0.818,5.426,3.198,6.241,6.246c0.815,3.047-0.057,6.298-2.288,8.528
		c-6.628,6.61-10.354,15.586-10.354,24.947c0,9.361,3.725,18.337,10.354,24.947c13.95,13.363,35.952,13.363,49.902,0
		c6.631-6.61,10.358-15.588,10.358-24.951s-3.727-18.341-10.358-24.951c-2.231-2.23-3.104-5.48-2.288-8.528
		c0.815-3.047,3.194-5.428,6.241-6.246c3.047-0.818,6.298,0.052,8.529,2.282c15.141,15.146,19.671,37.919,11.48,57.706
		C437.818,437.288,418.516,450.195,397.1,450.207z"/>
	<path style="fill:#41767F;" d="M397.1,406.069c-2.348,0.024-4.608-0.899-6.268-2.559c-1.661-1.661-2.583-3.92-2.559-6.268
		c0.014-1.154,0.254-2.293,0.706-3.354c0.448-1.069,1.075-2.055,1.854-2.913c3.54-3.266,8.995-3.266,12.535,0
		c0.779,0.859,1.406,1.844,1.854,2.913c0.452,1.061,0.692,2.201,0.706,3.354c0.024,2.348-0.899,4.608-2.559,6.268
		S399.449,406.093,397.1,406.069z"/>
</g>
<g>
</g>
<g>
</g>
<g>
</g>
<g>
</g>
<g>
</g>
<g>
</g>
<g>
</g>
<g>
</g>
<g>
</g>
<g>
</g>
<g>
</g>
<g>
</g>
<g>
</g>
<g>
</g>
<g>
</g>
</svg>
